<svg id="Capa_1" enable-background="new 0 0 512.002 512.002" height="512" viewBox="0 0 512.002 512.002" width="512" xmlns="http://www.w3.org/2000/svg"><g><path d="m163.857 34.832c-8.284 0-15 6.716-15 15v2.97h-18.159c-8.284 0-15 6.716-15 15s6.716 15 15 15h18.159v32.49c0 8.284 6.716 15 15 15s15-6.716 15-15v-65.46c0-8.284-6.716-15-15-15z" fill="#cc9366"/><path d="m163.857 100.292c-5.359 0-10.311 2.859-12.99 7.5l-148.855 257.823c-4.139 7.168-1.688 16.333 5.474 20.481l138.166 80c2.32 1.343 4.916 2.019 7.517 2.019 2.3 0 4.604-.529 6.724-1.591l159.543-80z" fill="#b17949"/><path d="m509.993 365.615-186.649-323.283c-2.68-4.641-7.631-7.5-12.99-7.5s-10.311 2.859-12.99 7.5l-197.619 342.287c-2.435 4.217-2.671 9.353-.635 13.775 2.037 4.422 6.094 7.581 10.88 8.472l197.619 36.783c.908.169 1.827.253 2.745.253 1.45 0 2.897-.21 4.296-.628l186.648-55.787c4.396-1.313 7.948-4.567 9.643-8.831 1.695-4.263 1.346-9.067-.948-13.041z" fill="#b17949"/><path d="m323.344 42.332c-2.68-4.641-7.631-7.5-12.99-7.5v409.07c1.45 0 2.897-.211 4.295-.628l186.648-55.787c4.396-1.313 7.948-4.567 9.643-8.831 1.695-4.263 1.346-9.068-.948-13.041z" fill="#805540"/><path d="m163.857 34.832h-.001v95.46h.001c8.285 0 15-6.716 15-15v-65.46c0-8.284-6.716-15-15-15z" fill="#b17949"/><path d="m176.847 107.792c-2.68-4.641-7.631-7.5-12.99-7.5h-.001v364.245l155.579-78.013c3.693-1.852 6.459-5.145 7.645-9.102 1.187-3.958.688-8.229-1.378-11.807z" fill="#805540"/><path d="m308.079 378.818c-8.284 0-15-6.716-15-15v-79.733c0-8.284 6.716-15 15-15s15 6.716 15 15v79.733c0 8.284-6.716 15-15 15z" fill="#cc9366"/><path d="m15.002 373.116c40.165 0 40.165 8 80.331 8s40.166-8 80.332-8c40.165 0 40.165 8 80.331 8 40.167 0 40.167-8 80.333-8 40.168 0 40.168 8 80.337 8s40.168-8 80.337-8" fill="#fff"/><path d="m310.354 269.276v109.351c7.201-1.099 12.724-7.301 12.724-14.809v-79.733c.001-7.508-5.522-13.71-12.724-14.809z" fill="#b17949"/><path d="m255.996 366.115c-18.604 0-27.653-1.803-37.235-3.711-10.586-2.109-21.533-4.289-43.095-4.289-21.563 0-32.51 2.18-43.096 4.289-9.582 1.908-18.633 3.711-37.236 3.711s-27.654-1.803-37.236-3.711c-10.592-2.11-21.545-4.291-43.13-4.289-8.269.001-14.964 6.731-14.964 15v89.055c0 8.284 6.716 15 15 15h241l21.015-59.528z" fill="#97e4fd"/><path d="m384.204 297.16-20.994-36.363c2.901-1.261 5.38-3.428 7.014-6.258 2.68-4.641 2.68-10.359 0-15l-46.878-81.196c-2.68-4.641-7.631-7.5-12.99-7.5-5.358 0-10.311 2.859-12.99 7.5l-46.879 81.196c-2.68 4.641-2.68 10.359 0 15 1.634 2.83 4.112 4.998 7.014 6.258l-20.994 36.363c-2.68 4.641-2.68 10.359 0 15s7.631 7.5 12.99 7.5h121.718c5.359 0 10.311-2.859 12.99-7.5s2.678-10.359-.001-15z" fill="#aae071"/><path d="m363.209 260.797c2.901-1.261 5.38-3.428 7.014-6.258 2.68-4.641 2.68-10.359 0-15l-46.878-81.196c-2.68-4.641-7.631-7.5-12.99-7.5v168.818h60.859c5.359 0 10.311-2.859 12.99-7.5s2.68-10.359 0-15z" fill="#73ca7a"/><path d="m497.002 358.115c-21.563 0-32.511 2.18-43.098 4.289-9.583 1.908-18.634 3.711-37.239 3.711-18.604 0-27.655-1.803-37.238-3.711-10.587-2.109-21.535-4.289-43.099-4.289-21.563 0-32.509 2.18-43.096 4.289-9.581 1.908-18.631 3.71-37.23 3.711v111.055h241c8.284 0 15-6.716 15-15v-89.055c0-8.284-6.715-15-15-15z" fill="#7dc1fc"/></g></svg>